PathFileType	4	(X/Y/Z)	/Users/itak/Documents/Research/Walk-IL/dataset/trc/00292_00010.trc
DataRate	CameraRate	NumFrames	NumMarkers	Units	OrigDataRate	OrigDataStartFrame	OrigNumFrames
100.000000	100.000000	4	54	mm	100.000000	571	653
Frame#	Time	RPSI			LPSI			L3			STRN			T10			C7			CLAV			RBAK			LBAK			LSHO			LUPA			LAEL			LAOL			LWTS			LWPS			LFRA			LHPS			LHTS			RSHO			RUPA			RAEL			RAOL			RWTS			RWPS			RFRA			RIFD			RHPS			RBHD			LFHD			RFHD			LBHD			LHIP			RHIP			RASI			LASI			LKNE			LTHI			LANK			LTIP			LTOE			LMT1			LMT5			LHEE			RKNE			RTHI			RANK			RTIP			RTOE			RMT1			RMT5			RHEE			RHTS			LIFD			*53			
		X1	Y1	Z1	X2	Y2	Z2	X3	Y3	Z3	X4	Y4	Z4	X5	Y5	Z5	X6	Y6	Z6	X7	Y7	Z7	X8	Y8	Z8	X9	Y9	Z9	X10	Y10	Z10	X11	Y11	Z11	X12	Y12	Z12	X13	Y13	Z13	X14	Y14	Z14	X15	Y15	Z15	X16	Y16	Z16	X17	Y17	Z17	X18	Y18	Z18	X19	Y19	Z19	X20	Y20	Z20	X21	Y21	Z21	X22	Y22	Z22	X23	Y23	Z23	X24	Y24	Z24	X25	Y25	Z25	X26	Y26	Z26	X27	Y27	Z27	X28	Y28	Z28	X29	Y29	Z29	X30	Y30	Z30	X31	Y31	Z31	X32	Y32	Z32	X33	Y33	Z33	X34	Y34	Z34	X35	Y35	Z35	X36	Y36	Z36	X37	Y37	Z37	X38	Y38	Z38	X39	Y39	Z39	X40	Y40	Z40	X41	Y41	Z41	X42	Y42	Z42	X43	Y43	Z43	X44	Y44	Z44	X45	Y45	Z45	X46	Y46	Z46	X47	Y47	Z47	X48	Y48	Z48	X49	Y49	Z49	X50	Y50	Z50	X51	Y51	Z51	X52	Y52	Z52	X53	Y53	Z53	X54	Y54	Z54	

572	5.71	478.9002990722656	991.208740234375	703.5272216796875	537.3143310546875	993.3779296875	868.2213745117188	500.9995727539062	1067.27490234375	801.3650512695312	271.6009826660156	1250.04931640625	897.259765625	522.29736328125	1185.052978515625	809.8612060546875	492.5321350097656	1427.5810546875	864.3505249023438	339.3834228515625	1346.346313476562	891.3231811523438	518.30712890625	1298.960815429688	763.4719848632812	535.0234985351562	1378.695190429688	953.8827514648438	464.7362670898438	1384.6025390625	1027.857177734375	510.0404663085938	1266.642456054688	1088.933227539062	501.3670959472656	1075.5380859375	1124.869750976562	525.6425170898438	1040.401733398438	1049.2548828125	352.7663269042969	913.7295532226562	1189.987670898438	411.4171752929688	889.7887573242188	1226.052490234375	473.3108825683594	987.893310546875	1167.194458007812	376.1607971191406	816.774169921875	1256.61572265625	315.1774291992188	842.1181030273438	1253.417724609375	389.489501953125	1424.78759765625	728.4383544921875	380.8426818847656	1376.123901367188	655.1070556640625	394.4787292480469	1122.957275390625	564.984619140625	437.0489501953125	1101.393676757812	647.15869140625	267.1530456542969	915.8773803710938	614.9563598632812	297.6433410644531	909.1777954101562	534.48583984375	360.2454833984375	1060.33203125	549.6804809570312	223.4118499755859	735.3068237304688	602.1265258789062	253.2580413818359	804.3511352539062	534.1553955078125	416.2058410644531	1609.03466796875	844.1807250976562	265.3897705078125	1569.863159179688	987.3749389648438	249.9559783935547	1581.037841796875	896.7587280273438	442.5393371582031	1582.416870117188	985.8026733398438	505.3485717773438	950.5751342773438	984.14892578125	344.3477783203125	947.9075927734375	643.227294921875	261.9278869628906	962.626220703125	753.0569458007812	357.080078125	961.6861572265625	986.0849609375	418.7466125488281	489.6573181152344	979.6666259765625	438.3115539550781	631.3627319335938	995.5929565429688	474.2439575195312	41.45379257202148	908.2625732421875	453.5523681640625	259.8750305175781	950.8389892578125	259.2891540527344	38.36758422851562	944.9786376953125	306.1103820800781	33.90750885009766	879.8701171875	369.6175231933594	38.66511154174805	972.7191772460938	487.1508483886719	42.39372634887695	834.2725219726562	212.0776672363281	494.9360961914062	719.7708740234375	252.5618438720703	750.6124267578125	680.6638793945312	415.7443237304688	92.37065887451172	656.0909423828125	237.8746032714844	370.9845581054688	720.8739624023438	280.22998046875	64.16577911376953	795.0800170898438	347.8168640136719	67.57666015625	801.505859375	319.9669189453125	57.83507537841797	687.2733764648438	484.2299499511719	105.1352767944336	671.6121215820312	210.8361663818359	810.2623901367188	591.4180908203125	286.15673828125	757.8646850585938	1263.4345703125	nan	nan	nan	
573	5.72	479.1465759277344	991.771240234375	706.1978759765625	536.2610473632812	993.612060546875	871.3328247070312	500.4035339355469	1067.400512695312	804.300048828125	270.6306762695312	1250.258178710938	898.8274536132812	521.8340454101562	1185.102905273438	812.9993896484375	491.947021484375	1427.623779296875	867.343017578125	338.6181335449219	1346.50048828125	893.3951416015625	518.2491455078125	1299.052124023438	766.5719604492188	533.849365234375	1378.680419921875	957.1148681640625	463.1320190429688	1384.614624023438	1030.70068359375	507.7222290039062	1266.417358398438	1091.87255859375	498.0781860351562	1075.173706054688	1127.074584960938	523.146240234375	1040.231323242188	1051.607299804688	347.8062744140625	914.0235595703125	1189.86767578125	405.851806640625	889.669677734375	1226.643676757812	469.0733032226562	987.580078125	1168.772338867188	369.6676025390625	816.76123046875	1256.5107421875	308.8667602539062	842.4920043945312	1252.527587890625	389.6920166015625	1424.886596679688	730.787841796875	381.2444458007812	1375.951293945312	657.540283203125	394.2906799316406	1122.36083984375	568.46240234375	437.2155151367188	1101.27197265625	650.5930786132812	269.0008850097656	914.1018676757812	618.6611938476562	299.233154296875	907.928955078125	538.0833129882812	360.5679626464844	1059.488159179688	553.2711181640625	227.5589752197266	733.0185546875	605.7907104492188	256.1141967773438	802.4691162109375	537.8220825195312	415.4890747070312	1609.248413085938	846.6685791015625	263.8550415039062	1569.679565429688	988.9158935546875	248.9132843017578	1580.827026367188	898.249267578125	440.9521179199219	1582.664184570312	988.4229736328125	503.3959350585938	950.4985961914062	986.890380859375	345.0508422851562	948.4627075195312	644.8357543945312	261.6994018554688	962.883544921875	753.8952026367188	354.8812561035156	961.5768432617188	987.578369140625	417.6578063964844	489.4698486328125	980.6122436523438	436.7896118164062	631.1644287109375	997.0313720703125	474.2241821289062	41.49653244018555	908.326904296875	453.0468139648438	259.8098449707031	951.3997192382812	259.2023010253906	38.32595825195312	944.8792114257812	306.0911865234375	33.861083984375	879.8171997070312	369.5619506835938	38.65256881713867	972.6862182617188	487.117919921875	42.55255508422852	834.4105224609375	214.0632171630859	494.6436157226562	720.3020629882812	253.7702331542969	750.5513916015625	681.3553466796875	410.7411499023438	87.26230621337891	662.8533935546875	237.9673767089844	369.9976196289062	722.7575073242188	272.9164733886719	64.46224975585938	800.4522094726562	340.4212036132812	66.03350067138672	807.7587890625	313.689697265625	55.73904418945312	693.2677612304688	479.3257141113281	98.41637420654297	678.9725341796875	214.0150909423828	807.8034057617188	595.3150024414062	279.1293029785156	758.3692016601562	1261.96875	nan	nan	nan	
574	5.73	479.3784790039062	992.3646240234375	708.8024291992188	535.2244873046875	993.8897705078125	874.358154296875	499.7768859863281	1067.536010742188	807.1375732421875	269.656005859375	1250.497314453125	900.2869262695312	521.3538208007812	1185.154052734375	815.998046875	491.3572082519531	1427.674072265625	870.1883544921875	337.8511962890625	1346.673461914062	895.3588256835938	518.1436767578125	1299.1455078125	769.5243530273438	532.6923217773438	1378.676147460938	960.1845703125	461.5613098144531	1384.630859375	1033.402709960938	505.4952392578125	1266.20263671875	1094.634155273438	494.9361267089844	1074.786865234375	1129.055419921875	520.8079833984375	1040.095703125	1053.720947265625	343.1448669433594	914.1134033203125	1189.350463867188	400.6095581054688	889.371826171875	1226.827270507812	465.0652160644531	987.1870727539062	1170.049072265625	363.5578308105469	816.50634765625	1255.91748046875	302.9096069335938	842.5626220703125	1251.151000976562	389.853759765625	1424.989868164062	733.0223999023438	381.5759582519531	1375.790161132812	659.865966796875	393.94140625	1121.77587890625	571.828369140625	437.2757263183594	1101.170043945312	653.8744506835938	270.8131713867188	912.2728881835938	622.2787475585938	300.7386779785156	906.6753540039062	541.5864868164062	360.74072265625	1058.647338867188	556.7592163085938	231.9525909423828	730.6470947265625	609.3765258789062	259.0440368652344	800.5275268554688	541.4224243164062	414.7644958496094	1609.482177734375	849.0216064453125	262.3936157226562	1569.550048828125	990.3910522460938	247.9025268554688	1580.663208007812	899.6751098632812	439.4618835449219	1582.905151367188	990.8944702148438	501.4742736816406	950.4566650390625	989.5400390625	345.7733764648438	948.9998168945312	646.3851318359375	261.4822998046875	963.120849609375	754.6655883789062	352.7203369140625	961.4791870117188	988.9871215820312	416.6030883789062	489.2958374023438	981.55029296875	435.3525390625	630.9845581054688	998.435302734375	474.2028503417969	41.52133560180664	908.41064453125	452.5540466308594	259.7669982910156	951.9703979492188	259.1384582519531	38.29452896118164	944.7918090820312	306.0822448730469	33.82011795043945	879.7647705078125	369.5187683105469	38.64097213745117	972.664306640625	487.1099243164062	42.73995590209961	834.5762939453125	216.2371215820312	494.3198547363281	720.8246459960938	255.1289520263672	750.4486083984375	681.9712524414062	405.8108825683594	82.44169616699219	669.1691284179688	238.2320404052734	369.0448303222656	724.569091796875	265.9747314453125	64.88223266601562	805.4103393554688	333.4729309082031	64.65363311767578	813.6011352539062	307.6491088867188	53.83304595947266	698.8566284179688	474.4679565429688	92.023681640625	685.860107421875	217.3382110595703	805.2152099609375	599.196533203125	272.5558471679688	758.5277099609375	1259.878784179688	nan	nan	nan	
575	5.74	479.589599609375	992.9747314453125	711.3361206054688	534.2095947265625	994.1952514648438	877.2916870117188	499.1246337890625	1067.6748046875	809.8736572265625	268.6785278320312	1250.746215820312	901.6399536132812	520.8567504882812	1185.203002929688	818.8596801757812	490.76318359375	1427.7265625	872.8876342773438	337.0687255859375	1346.85595703125	897.2091674804688	517.9962768554688	1299.234008789062	772.329345703125	531.5490112304688	1378.677612304688	963.0966186523438	460.0186157226562	1384.64599609375	1035.964599609375	503.3466186523438	1265.9931640625	1097.226928710938	491.933349609375	1074.371948242188	1130.824096679688	518.61328125	1039.988159179688	1055.610107421875	338.7865600585938	913.9892578125	1188.453002929688	395.6930847167969	888.886962890625	1226.622924804688	461.2821044921875	986.7094116210938	1171.039794921875	357.8456726074219	816.00537109375	1254.860107421875	297.3313598632812	842.3276977539062	1249.321166992188	389.9641418457031	1425.084716796875	735.14208984375	381.8360595703125	1375.628540039062	662.0801391601562	393.4838562011719	1121.199584960938	575.0663452148438	437.265625	1101.078979492188	656.9930419921875	272.5775146484375	910.4337158203125	625.78564453125	302.1589660644531	905.4338989257812	544.9859619140625	360.7999572753906	1057.813232421875	560.1263427734375	236.5504608154297	728.240234375	612.8821411132812	262.0139770507812	798.5593872070312	544.9449462890625	414.0350646972656	1609.726928710938	851.2379760742188	261.002197265625	1569.47314453125	991.8012084960938	246.9343566894531	1580.557983398438	901.0277709960938	438.0671691894531	1583.129272460938	993.2179565429688	499.6041259765625	950.4417724609375	992.097412109375	346.4786376953125	949.51123046875	647.8850708007812	261.2952575683594	963.3369750976562	755.3980102539062	350.6466979980469	961.3759155273438	990.3409423828125	415.59375	489.1344909667969	982.46923828125	433.9985046386719	630.8184814453125	999.7971801757812	474.1858520507812	41.53393173217773	908.5101318359375	452.0789184570312	259.746826171875	952.5337524414062	259.095703125	38.27280044555664	944.7150268554688	306.0840454101562	33.77989959716797	879.7071533203125	369.4853515625	38.63062286376953	972.649658203125	487.1257629394531	42.9450569152832	834.75927734375	218.5809631347656	493.9518127441406	721.3629760742188	256.59033203125	750.3155517578125	682.5287475585938	400.9932250976562	77.91336059570312	675.0167236328125	238.6754913330078	368.1327209472656	726.2932739257812	259.3919067382812	65.38664245605469	809.9269409179688	326.9279174804688	63.42185974121094	818.9869995117188	301.8715209960938	52.11413955688477	704.0037841796875	469.7040710449219	85.94911956787109	692.259521484375	220.7765502929688	802.5457763671875	603.0470581054688	266.4567565917969	758.3529663085938	1257.196899414062	nan	nan	nan	
